<?xml version="1.0" encoding="UTF-8" standalone="no"?>
<svg
   width="1087.149"
   height="192.31258"
   viewBox="0 0 1087.1491 192.31258"
   version="1.1"
   xml:space="preserve"
   id="SVGRoot"
   inkscape:version="1.4.2 (ebf0e940d0, 2025-05-08)"
   sodipodi:docname="stellarith-studios-logo-text-oneline-vector.svg"
   xmlns:inkscape="http://www.inkscape.org/namespaces/inkscape"
   xmlns:sodipodi="http://sodipodi.sourceforge.net/DTD/sodipodi-0.dtd"
   xmlns="http://www.w3.org/2000/svg"
   xmlns:svg="http://www.w3.org/2000/svg"><defs
   id="defs2" />
<sodipodi:namedview
   pagecolor="#a9a9a9"
   bordercolor="#292929"
   borderopacity="1"
   inkscape:showpageshadow="2"
   inkscape:pageopacity="0.0"
   inkscape:pagecheckerboard="0"
   inkscape:deskcolor="#232323"
   id="namedview1"
   inkscape:zoom="1.28"
   inkscape:cx="463.28125"
   inkscape:cy="60.9375"
   inkscape:window-width="1896"
   inkscape:window-height="1138"
   inkscape:window-x="0"
   inkscape:window-y="0"
   inkscape:window-maximized="1"
   inkscape:current-layer="g3" />
<style
   type="text/css"
   id="style1">
g.prefab path {
  vector-effect:non-scaling-stroke;
  -inkscape-stroke:hairline;
  fill: none;
  fill-opacity: 1;
  stroke-opacity: 1;
  stroke: #00349c;
}
</style>

<g
   id="g3"
   inkscape:label="text"
   transform="translate(-314.48268,-260.51332)"><path
     d="m 342.64908,449.04636 h 41.10937 c 3.79688,0 7.03125,-1.3125 9.70313,-3.98438 2.67187,-2.67187 4.03125,-5.90625 4.03125,-9.70312 V 332.51511 l -41.10938,27.42187 v -48 h 13.6875 v 27.42188 l 27.42188,-13.73438 v -27.42187 c 0,-3.75 -1.35938,-6.98438 -4.03125,-9.70313 -2.67188,-2.625 -5.90625,-3.98437 -9.70313,-3.98437 h -41.10937 c -3.79688,0 -7.03125,1.35937 -9.70313,4.03125 -2.67187,2.71875 -3.98437,5.95312 -3.98437,9.70312 v 102.79688 l 41.10937,-27.42188 v 48 h -13.6875 v -27.42187 l -27.42187,13.73437 v 27.42188 c 0,3.79687 1.3125,7.03125 3.98437,9.70312 2.67188,2.67188 5.90625,3.98438 9.70313,3.98438 z m 84.75,0 h 31.73437 v -27.42188 h -18 v -68.57812 l 16.59375,-8.71875 v -27.42188 l -16.59375,8.71875 v -41.10937 h -27.42187 v 54.84375 l -12.70313,7.03125 v 27.46875 l 12.70313,-7.07813 v 68.57813 c 0,3.79687 1.3125,7.03125 3.98437,9.70312 z m 64.03125,-68.53125 v -41.15625 h 13.6875 v 27.42187 z m -13.73438,68.53125 h 41.10938 c 3.79687,0 7.03125,-1.3125 9.70312,-3.98438 2.67188,-2.67187 4.03125,-5.90625 4.03125,-9.70312 v -48 l -27.42187,13.6875 v 20.57812 h -13.6875 v -13.6875 l 41.10937,-27.42187 v -54.89063 c 0,-3.75 -1.35937,-6.98437 -4.03125,-9.70312 -2.67187,-2.625 -5.90625,-3.98438 -9.70312,-3.98438 h -41.10938 c -3.79687,0 -7.03125,1.35938 -9.70312,4.03125 -2.67188,2.71875 -3.98438,5.90625 -3.98438,9.65625 v 109.73438 c 0,3.79687 1.3125,7.03125 3.98438,9.70312 2.67187,2.67188 5.90625,3.98438 9.70312,3.98438 z m 58.26563,0 h 27.42187 V 284.51511 l -27.42187,13.6875 z m 30.84375,0 H 594.2272 V 284.51511 l -27.42187,13.6875 z m 71.95312,-27.42188 h -13.6875 v -27.42187 l 13.6875,-13.6875 z m -27.42187,27.42188 h 20.57812 c 1.875,0 3.46875,-1.3125 4.82813,-3.98438 1.35937,-2.67187 2.01562,-5.90625 2.01562,-9.70312 v 13.6875 h 27.42188 V 325.62448 c 0,-3.75 -1.35938,-6.98437 -4.03125,-9.70312 -2.67188,-2.625 -5.90625,-3.98438 -9.70313,-3.98438 h -41.10937 c -3.79688,0 -7.03125,1.35938 -9.70313,4.03125 -2.67187,2.71875 -3.98437,5.90625 -3.98437,9.65625 v 48 l 27.42187,-13.6875 v -20.57812 h 13.6875 v 13.6875 l -41.10937,27.46875 v 54.84375 c 0,3.79687 1.3125,7.03125 3.98437,9.70312 2.67188,2.67188 5.90625,3.98438 9.70313,3.98438 z m 58.26562,0 h 27.42188 V 339.40573 h 6.84375 v 27.375 l 25.21875,-13.73437 v -27.42188 c 0,-3.75 -1.35938,-6.98437 -3.98438,-9.70312 -2.71875,-2.625 -5.95312,-3.98438 -9.70312,-3.98438 h -11.53125 c -1.92188,0 -3.51563,1.35938 -4.875,4.03125 -1.3125,2.71875 -1.96875,5.95313 -1.96875,9.70313 V 311.93698 H 669.6022 Z m 62.90625,0 h 27.42188 V 311.93698 l -27.42188,13.6875 z m 0,-130.26563 27.42188,-13.73437 v -27.42188 l -27.42188,13.73438 z m 57.32813,130.26563 h 31.73437 v -27.42188 h -18 v -68.57812 l 16.59375,-8.71875 v -27.42188 l -16.59375,8.71875 v -41.10937 h -27.42187 v 54.84375 l -12.70313,7.03125 v 27.46875 l 12.70313,-7.07813 v 68.57813 c 0,3.79687 1.3125,7.03125 3.98437,9.70312 z m 36.60937,0 h 27.42188 V 339.40573 h 13.6875 V 449.04636 H 894.9772 V 325.62448 c 0,-3.75 -1.35937,-6.98437 -4.03125,-9.70312 -2.67187,-2.625 -5.90625,-3.98438 -9.70312,-3.98438 h -20.53125 c -1.92188,0 -3.51563,1.35938 -4.875,4.03125 -1.3125,2.71875 -1.96875,5.95313 -1.96875,9.70313 v -41.15625 l -27.42188,13.6875 z m 136.96875,0 h 41.1094 c 3.7969,0 7.0312,-1.3125 9.7031,-3.98438 2.6719,-2.67187 4.0313,-5.90625 4.0313,-9.70312 V 332.51511 l -41.10942,27.42187 v -48 h 13.6875 v 27.42188 l 27.42192,-13.73438 v -27.42187 c 0,-3.75 -1.3594,-6.98438 -4.0313,-9.70313 -2.6719,-2.625 -5.9062,-3.98437 -9.7031,-3.98437 h -41.1094 c -3.79687,0 -7.03125,1.35937 -9.70312,4.03125 -2.67188,2.71875 -3.98438,5.95312 -3.98438,9.70312 v 102.79688 l 41.10938,-27.42188 v 48 h -13.6875 v -27.42187 l -27.42188,13.73437 v 27.42188 c 0,3.79687 1.3125,7.03125 3.98438,9.70312 2.67187,2.67188 5.90625,3.98438 9.70312,3.98438 z m 84.75,0 h 31.7344 v -27.42188 h -18 v -68.57812 l 16.5937,-8.71875 v -27.42188 l -16.5937,8.71875 v -41.10937 h -27.4219 v 54.84375 l -12.7031,7.03125 v 27.46875 l 12.7031,-7.07813 v 68.57813 c 0,3.79687 1.3125,7.03125 3.9844,9.70312 z m 50.2969,0 h 20.5781 c 1.875,0 3.4688,-1.3125 4.8281,-4.03125 1.3594,-2.67188 2.0157,-5.90625 2.0157,-9.70313 v 13.73438 h 27.4218 V 311.93698 h -27.4218 v 109.6875 h -13.6875 v -109.6875 h -27.4219 v 123.42188 c 0,3.79687 1.3125,7.03125 3.9844,9.70312 2.6718,2.67188 5.9062,3.98438 9.7031,3.98438 z m 99.375,-27.42188 h -13.6875 v -82.21875 h 13.6875 z m -27.4219,27.42188 h 20.5781 c 1.875,0 3.4688,-1.3125 4.8282,-3.98438 1.3593,-2.67187 2.0156,-5.90625 2.0156,-9.70312 v 13.6875 h 27.4219 V 284.51511 l -27.4219,13.6875 v 27.46875 c 0,-3.75 -0.6563,-6.98438 -2.0156,-9.70313 -1.3594,-2.67187 -2.9532,-4.03125 -4.8282,-4.03125 h -20.5781 c -3.7969,0 -7.0312,1.35938 -9.7031,3.98438 -2.6719,2.71875 -3.9844,5.95312 -3.9844,9.70312 v 109.73438 c 0,3.79687 1.3125,7.03125 3.9844,9.70312 2.6719,2.67188 5.9062,3.98438 9.7031,3.98438 z m 58.2656,0 h 27.4219 V 311.93698 l -27.4219,13.6875 z m 0,-130.26563 27.4219,-13.73437 v -27.42188 l -27.4219,13.73438 z m 71.9532,102.84375 h -13.6875 v -82.26562 h 13.6875 z m -27.4219,27.42188 h 41.1094 c 3.7968,0 7.0312,-1.3125 9.7031,-3.98438 2.6719,-2.67187 4.0312,-5.90625 4.0312,-9.70312 V 325.62448 c 0,-3.75 -1.3593,-6.98437 -4.0312,-9.70312 -2.6719,-2.625 -5.9063,-3.98438 -9.7031,-3.98438 h -41.1094 c -3.7969,0 -7.0313,1.35938 -9.7031,4.03125 -2.6719,2.71875 -3.9844,5.90625 -3.9844,9.65625 v 109.73438 c 0,3.79687 1.3125,7.03125 3.9844,9.70312 2.6718,2.67188 5.9062,3.98438 9.7031,3.98438 z m 71.9531,0 h 38.9063 c 3.7968,0 7.0312,-1.3125 9.7031,-3.98438 2.7187,-2.67187 4.0312,-5.90625 4.0312,-9.70312 v -89.15625 l -41.1093,27.42187 v -34.26562 h 13.6875 v 13.6875 l 27.4218,-13.6875 v -13.73438 c 0,-3.75 -1.3125,-6.98437 -4.0312,-9.70312 -2.6719,-2.625 -5.9063,-3.98438 -9.7031,-3.98438 h -38.9063 c -3.7969,0 -7.0312,1.35938 -9.7031,4.03125 -2.6719,2.71875 -3.9844,5.90625 -3.9844,9.65625 v 89.15625 l 38.9063,-27.42187 v 34.26562 h -13.6875 v -13.6875 l -25.2188,13.6875 v 13.73438 c 0,3.79687 1.3125,7.03125 3.9844,9.70312 2.6719,2.67188 5.9062,3.98438 9.7031,3.98438 z"
     id="text2-9"
     style="font-size:192px;line-height:0.94;font-family:'Edge of the Galaxy';-inkscape-font-specification:'Edge of the Galaxy';word-spacing:0px;stroke:#000000;stroke-width:7.55906"
     inkscape:label="text_shadow"
     aria-label="Stellarith   Studios" /><path
     style="font-size:192px;line-height:0.94;font-family:'Edge of the Galaxy';-inkscape-font-specification:'Edge of the Galaxy';word-spacing:0px;fill:#ffffff;stroke:#000000;stroke-width:7.55906"
     d="m 331.94971,435.71472 h 41.10937 c 3.79688,0 7.03125,-1.3125 9.70313,-3.98437 2.67187,-2.67188 4.03125,-5.90625 4.03125,-9.70313 V 319.18347 l -41.10938,27.42188 v -48 h 13.6875 v 27.42187 l 27.42188,-13.73437 v -27.42188 c 0,-3.75 -1.35938,-6.98437 -4.03125,-9.70312 -2.67188,-2.625 -5.90625,-3.98438 -9.70313,-3.98438 h -41.10937 c -3.79688,0 -7.03125,1.35938 -9.70313,4.03125 -2.67187,2.71875 -3.98437,5.95313 -3.98437,9.70313 v 102.79687 l 41.10937,-27.42187 v 48 h -13.6875 v -27.42188 l -27.42187,13.73438 v 27.42187 c 0,3.79688 1.3125,7.03125 3.98437,9.70313 2.67188,2.67187 5.90625,3.98437 9.70313,3.98437 z m 84.75,0 h 31.73437 v -27.42187 h -18 v -68.57813 l 16.59375,-8.71875 V 303.5741 l -16.59375,8.71875 v -41.10938 h -27.42187 v 54.84375 l -12.70313,7.03125 v 27.46875 l 12.70313,-7.07812 v 68.57812 c 0,3.79688 1.3125,7.03125 3.98437,9.70313 z m 64.03125,-68.53125 v -41.15625 h 13.6875 v 27.42188 z m -13.73438,68.53125 h 41.10938 c 3.79687,0 7.03125,-1.3125 9.70312,-3.98437 2.67188,-2.67188 4.03125,-5.90625 4.03125,-9.70313 v -48 l -27.42187,13.6875 v 20.57813 h -13.6875 v -13.6875 l 41.10937,-27.42188 v -54.89062 c 0,-3.75 -1.35937,-6.98438 -4.03125,-9.70313 -2.67187,-2.625 -5.90625,-3.98437 -9.70312,-3.98437 h -41.10938 c -3.79687,0 -7.03125,1.35937 -9.70312,4.03125 -2.67188,2.71875 -3.98438,5.90625 -3.98438,9.65625 v 109.73437 c 0,3.79688 1.3125,7.03125 3.98438,9.70313 2.67187,2.67187 5.90625,3.98437 9.70312,3.98437 z m 58.26563,0 h 27.42187 V 271.18347 l -27.42187,13.6875 z m 30.84375,0 h 27.42187 V 271.18347 l -27.42187,13.6875 z m 71.95312,-27.42187 h -13.6875 v -27.42188 l 13.6875,-13.6875 z m -27.42187,27.42187 h 20.57812 c 1.875,0 3.46875,-1.3125 4.82813,-3.98437 1.35937,-2.67188 2.01562,-5.90625 2.01562,-9.70313 v 13.6875 h 27.42188 V 312.29285 c 0,-3.75 -1.35938,-6.98438 -4.03125,-9.70313 -2.67188,-2.625 -5.90625,-3.98437 -9.70313,-3.98437 h -41.10937 c -3.79688,0 -7.03125,1.35937 -9.70313,4.03125 -2.67187,2.71875 -3.98437,5.90625 -3.98437,9.65625 v 48 l 27.42187,-13.6875 v -20.57813 h 13.6875 v 13.6875 l -41.10937,27.46875 v 54.84375 c 0,3.79688 1.3125,7.03125 3.98437,9.70313 2.67188,2.67187 5.90625,3.98437 9.70313,3.98437 z m 58.26562,0 h 27.42188 V 326.0741 h 6.84375 v 27.375 l 25.21875,-13.73438 v -27.42187 c 0,-3.75 -1.35938,-6.98438 -3.98438,-9.70313 -2.71875,-2.625 -5.95312,-3.98437 -9.70312,-3.98437 h -11.53125 c -1.92188,0 -3.51563,1.35937 -4.875,4.03125 -1.3125,2.71875 -1.96875,5.95312 -1.96875,9.70312 v -13.73437 h -27.42188 z m 62.90625,0 h 27.42188 V 298.60535 l -27.42188,13.6875 z m 0,-130.26562 27.42188,-13.73438 v -27.42187 l -27.42188,13.73437 z m 57.32813,130.26562 h 31.73437 v -27.42187 h -18 v -68.57813 l 16.59375,-8.71875 V 303.5741 l -16.59375,8.71875 v -41.10938 h -27.42187 v 54.84375 l -12.70313,7.03125 v 27.46875 l 12.70313,-7.07812 v 68.57812 c 0,3.79688 1.3125,7.03125 3.98437,9.70313 z m 36.60937,0 h 27.42188 V 326.0741 h 13.6875 v 109.64062 h 27.42187 V 312.29285 c 0,-3.75 -1.35937,-6.98438 -4.03125,-9.70313 -2.67187,-2.625 -5.90625,-3.98437 -9.70312,-3.98437 h -20.53125 c -1.92188,0 -3.51563,1.35937 -4.875,4.03125 -1.3125,2.71875 -1.96875,5.95312 -1.96875,9.70312 v -41.15625 l -27.42188,13.6875 z m 136.96875,0 h 41.10938 c 3.79687,0 7.03129,-1.3125 9.70309,-3.98437 2.6719,-2.67188 4.0313,-5.90625 4.0313,-9.70313 V 319.18347 l -41.10939,27.42188 v -48 h 13.6875 v 27.42187 l 27.42189,-13.73437 v -27.42188 c 0,-3.75 -1.3594,-6.98437 -4.0313,-9.70312 -2.6718,-2.625 -5.90622,-3.98438 -9.70309,-3.98438 h -41.10938 c -3.79687,0 -7.03125,1.35938 -9.70312,4.03125 -2.67188,2.71875 -3.98438,5.95313 -3.98438,9.70313 v 102.79687 l 41.10938,-27.42187 v 48 h -13.6875 v -27.42188 l -27.42188,13.73438 v 27.42187 c 0,3.79688 1.3125,7.03125 3.98438,9.70313 2.67187,2.67187 5.90625,3.98437 9.70312,3.98437 z m 84.74997,0 h 31.7344 v -27.42187 h -18 v -68.57813 l 16.5938,-8.71875 V 303.5741 l -16.5938,8.71875 v -41.10938 h -27.4219 v 54.84375 l -12.7031,7.03125 v 27.46875 l 12.7031,-7.07812 v 68.57812 c 0,3.79688 1.3125,7.03125 3.9844,9.70313 z m 50.2969,0 h 20.5781 c 1.875,0 3.4688,-1.3125 4.8282,-4.03125 1.3593,-2.67187 2.0156,-5.90625 2.0156,-9.70312 v 13.73437 h 27.4219 V 298.60535 h -27.4219 v 109.6875 h -13.6875 v -109.6875 h -27.4219 v 123.42187 c 0,3.79688 1.3125,7.03125 3.9844,9.70313 2.6719,2.67187 5.9062,3.98437 9.7031,3.98437 z m 99.375,-27.42187 h -13.6875 V 326.0741 h 13.6875 z m -27.4219,27.42187 h 20.5782 c 1.875,0 3.4687,-1.3125 4.8281,-3.98437 1.3594,-2.67188 2.0156,-5.90625 2.0156,-9.70313 v 13.6875 h 27.4219 V 271.18347 l -27.4219,13.6875 v 27.46875 c 0,-3.75 -0.6562,-6.98437 -2.0156,-9.70312 -1.3594,-2.67188 -2.9531,-4.03125 -4.8281,-4.03125 h -20.5782 c -3.7968,0 -7.0312,1.35937 -9.7031,3.98437 -2.6719,2.71875 -3.9844,5.95313 -3.9844,9.70313 v 109.73437 c 0,3.79688 1.3125,7.03125 3.9844,9.70313 2.6719,2.67187 5.9063,3.98437 9.7031,3.98437 z m 58.2657,0 h 27.4218 V 298.60535 l -27.4218,13.6875 z m 0,-130.26562 27.4218,-13.73438 v -27.42187 l -27.4218,13.73437 z m 71.9531,102.84375 h -13.6875 v -82.26563 h 13.6875 z m -27.4219,27.42187 h 41.1094 c 3.7969,0 7.0312,-1.3125 9.7031,-3.98437 2.6719,-2.67188 4.0313,-5.90625 4.0313,-9.70313 V 312.29285 c 0,-3.75 -1.3594,-6.98438 -4.0313,-9.70313 -2.6719,-2.625 -5.9062,-3.98437 -9.7031,-3.98437 h -41.1094 c -3.7969,0 -7.0312,1.35937 -9.7031,4.03125 -2.6719,2.71875 -3.9844,5.90625 -3.9844,9.65625 v 109.73437 c 0,3.79688 1.3125,7.03125 3.9844,9.70313 2.6719,2.67187 5.9062,3.98437 9.7031,3.98437 z m 71.9531,0 h 38.9063 c 3.7969,0 7.0312,-1.3125 9.7031,-3.98437 2.7188,-2.67188 4.0313,-5.90625 4.0313,-9.70313 v -89.15625 l -41.1094,27.42188 v -34.26563 h 13.6875 v 13.6875 l 27.4219,-13.6875 v -13.73437 c 0,-3.75 -1.3125,-6.98438 -4.0313,-9.70313 -2.6719,-2.625 -5.9062,-3.98437 -9.7031,-3.98437 h -38.9063 c -3.7968,0 -7.0312,1.35937 -9.7031,4.03125 -2.6719,2.71875 -3.9844,5.90625 -3.9844,9.65625 v 89.15625 l 38.9063,-27.42188 v 34.26563 h -13.6875 v -13.6875 l -25.2188,13.6875 v 13.73437 c 0,3.79688 1.3125,7.03125 3.9844,9.70313 2.6719,2.67187 5.9063,3.98437 9.7031,3.98437 z"
     id="text2"
     inkscape:label="text"
     aria-label="Stellarith   Studios" /></g></svg>
